<mxfile host="app.diagrams.net" modified="2024-03-20T11:12:56.980Z" agent="Mozilla/5.0 (X11; Linux x86_64) AppleWebKit/537.36 (KHTML, like Gecko) Chrome/120.0.0.0 Safari/537.36" etag="FBO6bhJ0YL3UNtFvUD9L" version="24.0.7" type="device">
  <diagram id="C5RBs43oDa-KdzZeNtuy" name="Page-1">
    <mxGraphModel dx="732" dy="801" grid="1" gridSize="10" guides="1" tooltips="1" connect="1" arrows="1" fold="1" page="1" pageScale="1" pageWidth="827" pageHeight="1169" math="0" shadow="0">
      <root>
        <mxCell id="WIyWlLk6GJQsqaUBKTNV-0" />
        <mxCell id="WIyWlLk6GJQsqaUBKTNV-1" parent="WIyWlLk6GJQsqaUBKTNV-0" />
        <mxCell id="x0Yur-ziyf_fUHAuHj2V-0" value="" style="dashed=0;outlineConnect=0;html=1;align=center;labelPosition=center;verticalLabelPosition=bottom;verticalAlign=top;shape=mxgraph.weblogos.twitter;fillColor=#1DA1F2;strokeColor=none" vertex="1" parent="WIyWlLk6GJQsqaUBKTNV-1">
          <mxGeometry x="80" y="60" width="80" height="70" as="geometry" />
        </mxCell>
        <mxCell id="x0Yur-ziyf_fUHAuHj2V-2" value="Proceso que simula la inserción de tweets" style="rounded=1;whiteSpace=wrap;html=1;fontSize=12;glass=0;strokeWidth=1;shadow=0;" vertex="1" parent="WIyWlLk6GJQsqaUBKTNV-1">
          <mxGeometry x="40" y="170" width="120" height="40" as="geometry" />
        </mxCell>
        <mxCell id="x0Yur-ziyf_fUHAuHj2V-8" style="edgeStyle=orthogonalEdgeStyle;rounded=0;orthogonalLoop=1;jettySize=auto;html=1;entryX=0;entryY=0.5;entryDx=0;entryDy=0;" edge="1" parent="WIyWlLk6GJQsqaUBKTNV-1" source="x0Yur-ziyf_fUHAuHj2V-3" target="x0Yur-ziyf_fUHAuHj2V-5">
          <mxGeometry relative="1" as="geometry" />
        </mxCell>
        <mxCell id="x0Yur-ziyf_fUHAuHj2V-9" style="edgeStyle=orthogonalEdgeStyle;rounded=0;orthogonalLoop=1;jettySize=auto;html=1;entryX=0;entryY=0.5;entryDx=0;entryDy=0;" edge="1" parent="WIyWlLk6GJQsqaUBKTNV-1" source="x0Yur-ziyf_fUHAuHj2V-3" target="x0Yur-ziyf_fUHAuHj2V-6">
          <mxGeometry relative="1" as="geometry" />
        </mxCell>
        <mxCell id="x0Yur-ziyf_fUHAuHj2V-10" style="edgeStyle=orthogonalEdgeStyle;rounded=0;orthogonalLoop=1;jettySize=auto;html=1;entryX=0;entryY=0.5;entryDx=0;entryDy=0;" edge="1" parent="WIyWlLk6GJQsqaUBKTNV-1" source="x0Yur-ziyf_fUHAuHj2V-3" target="x0Yur-ziyf_fUHAuHj2V-7">
          <mxGeometry relative="1" as="geometry" />
        </mxCell>
        <mxCell id="x0Yur-ziyf_fUHAuHj2V-3" value="" style="outlineConnect=0;dashed=0;verticalLabelPosition=bottom;verticalAlign=top;align=center;html=1;shape=mxgraph.aws3.queue;fillColor=#D9A741;gradientColor=none;" vertex="1" parent="WIyWlLk6GJQsqaUBKTNV-1">
          <mxGeometry x="120" y="278" width="73.5" height="48" as="geometry" />
        </mxCell>
        <mxCell id="x0Yur-ziyf_fUHAuHj2V-4" style="edgeStyle=orthogonalEdgeStyle;rounded=0;orthogonalLoop=1;jettySize=auto;html=1;entryX=0;entryY=0.5;entryDx=0;entryDy=0;entryPerimeter=0;" edge="1" parent="WIyWlLk6GJQsqaUBKTNV-1" source="x0Yur-ziyf_fUHAuHj2V-2" target="x0Yur-ziyf_fUHAuHj2V-3">
          <mxGeometry relative="1" as="geometry" />
        </mxCell>
        <mxCell id="x0Yur-ziyf_fUHAuHj2V-5" value="Analizador de sentimientos 1" style="rounded=1;whiteSpace=wrap;html=1;fontSize=12;glass=0;strokeWidth=1;shadow=0;" vertex="1" parent="WIyWlLk6GJQsqaUBKTNV-1">
          <mxGeometry x="274" y="210" width="120" height="40" as="geometry" />
        </mxCell>
        <mxCell id="x0Yur-ziyf_fUHAuHj2V-13" style="edgeStyle=orthogonalEdgeStyle;rounded=0;orthogonalLoop=1;jettySize=auto;html=1;" edge="1" parent="WIyWlLk6GJQsqaUBKTNV-1" source="x0Yur-ziyf_fUHAuHj2V-6" target="x0Yur-ziyf_fUHAuHj2V-11">
          <mxGeometry relative="1" as="geometry" />
        </mxCell>
        <mxCell id="x0Yur-ziyf_fUHAuHj2V-6" value="Analizador de sentimientos 2" style="rounded=1;whiteSpace=wrap;html=1;fontSize=12;glass=0;strokeWidth=1;shadow=0;" vertex="1" parent="WIyWlLk6GJQsqaUBKTNV-1">
          <mxGeometry x="274" y="282" width="120" height="40" as="geometry" />
        </mxCell>
        <mxCell id="x0Yur-ziyf_fUHAuHj2V-7" value="Analizador de sentimientos 3" style="rounded=1;whiteSpace=wrap;html=1;fontSize=12;glass=0;strokeWidth=1;shadow=0;" vertex="1" parent="WIyWlLk6GJQsqaUBKTNV-1">
          <mxGeometry x="274" y="350" width="120" height="40" as="geometry" />
        </mxCell>
        <mxCell id="x0Yur-ziyf_fUHAuHj2V-11" value="" style="outlineConnect=0;dashed=0;verticalLabelPosition=bottom;verticalAlign=top;align=center;html=1;shape=mxgraph.aws3.queue;fillColor=#D9A741;gradientColor=none;" vertex="1" parent="WIyWlLk6GJQsqaUBKTNV-1">
          <mxGeometry x="500" y="278" width="73.5" height="48" as="geometry" />
        </mxCell>
        <mxCell id="x0Yur-ziyf_fUHAuHj2V-12" style="edgeStyle=orthogonalEdgeStyle;rounded=0;orthogonalLoop=1;jettySize=auto;html=1;entryX=0;entryY=0.5;entryDx=0;entryDy=0;entryPerimeter=0;" edge="1" parent="WIyWlLk6GJQsqaUBKTNV-1" source="x0Yur-ziyf_fUHAuHj2V-5" target="x0Yur-ziyf_fUHAuHj2V-11">
          <mxGeometry relative="1" as="geometry" />
        </mxCell>
        <mxCell id="x0Yur-ziyf_fUHAuHj2V-15" style="edgeStyle=orthogonalEdgeStyle;rounded=0;orthogonalLoop=1;jettySize=auto;html=1;entryX=0;entryY=0.5;entryDx=0;entryDy=0;entryPerimeter=0;" edge="1" parent="WIyWlLk6GJQsqaUBKTNV-1" source="x0Yur-ziyf_fUHAuHj2V-7" target="x0Yur-ziyf_fUHAuHj2V-11">
          <mxGeometry relative="1" as="geometry" />
        </mxCell>
        <mxCell id="x0Yur-ziyf_fUHAuHj2V-17" value="" style="image;html=1;image=img/lib/clip_art/computers/Database_128x128.png" vertex="1" parent="WIyWlLk6GJQsqaUBKTNV-1">
          <mxGeometry x="100" y="470" width="80" height="80" as="geometry" />
        </mxCell>
        <mxCell id="x0Yur-ziyf_fUHAuHj2V-18" value="MongoDB" style="text;html=1;align=center;verticalAlign=middle;resizable=0;points=[];autosize=1;strokeColor=none;fillColor=none;" vertex="1" parent="WIyWlLk6GJQsqaUBKTNV-1">
          <mxGeometry x="96.75" y="555" width="80" height="30" as="geometry" />
        </mxCell>
        <mxCell id="x0Yur-ziyf_fUHAuHj2V-22" style="edgeStyle=orthogonalEdgeStyle;rounded=0;orthogonalLoop=1;jettySize=auto;html=1;entryX=1;entryY=0.5;entryDx=0;entryDy=0;" edge="1" parent="WIyWlLk6GJQsqaUBKTNV-1" source="x0Yur-ziyf_fUHAuHj2V-19" target="x0Yur-ziyf_fUHAuHj2V-17">
          <mxGeometry relative="1" as="geometry" />
        </mxCell>
        <mxCell id="x0Yur-ziyf_fUHAuHj2V-19" value="Inserción de datos en MongoDB" style="rounded=1;whiteSpace=wrap;html=1;fontSize=12;glass=0;strokeWidth=1;shadow=0;" vertex="1" parent="WIyWlLk6GJQsqaUBKTNV-1">
          <mxGeometry x="360" y="490" width="120" height="40" as="geometry" />
        </mxCell>
        <mxCell id="x0Yur-ziyf_fUHAuHj2V-20" style="edgeStyle=orthogonalEdgeStyle;rounded=0;orthogonalLoop=1;jettySize=auto;html=1;entryX=1;entryY=0.5;entryDx=0;entryDy=0;entryPerimeter=0;" edge="1" parent="WIyWlLk6GJQsqaUBKTNV-1" source="x0Yur-ziyf_fUHAuHj2V-19" target="x0Yur-ziyf_fUHAuHj2V-11">
          <mxGeometry relative="1" as="geometry">
            <Array as="points">
              <mxPoint x="594" y="302" />
            </Array>
          </mxGeometry>
        </mxCell>
        <mxCell id="x0Yur-ziyf_fUHAuHj2V-23" value="Topic: tweets_raw&lt;div&gt;&lt;br&gt;&lt;/div&gt;" style="text;html=1;align=center;verticalAlign=middle;resizable=0;points=[];autosize=1;strokeColor=none;fillColor=none;" vertex="1" parent="WIyWlLk6GJQsqaUBKTNV-1">
          <mxGeometry x="96.75" y="322" width="120" height="40" as="geometry" />
        </mxCell>
        <mxCell id="x0Yur-ziyf_fUHAuHj2V-24" value="Topic: tweets_enriched&lt;div&gt;&lt;br&gt;&lt;/div&gt;" style="text;html=1;align=center;verticalAlign=middle;resizable=0;points=[];autosize=1;strokeColor=none;fillColor=none;" vertex="1" parent="WIyWlLk6GJQsqaUBKTNV-1">
          <mxGeometry x="461.75" y="326" width="150" height="40" as="geometry" />
        </mxCell>
        <mxCell id="x0Yur-ziyf_fUHAuHj2V-37" style="edgeStyle=orthogonalEdgeStyle;rounded=0;orthogonalLoop=1;jettySize=auto;html=1;" edge="1" parent="WIyWlLk6GJQsqaUBKTNV-1" source="x0Yur-ziyf_fUHAuHj2V-25">
          <mxGeometry relative="1" as="geometry">
            <mxPoint x="170" y="660" as="targetPoint" />
          </mxGeometry>
        </mxCell>
        <mxCell id="x0Yur-ziyf_fUHAuHj2V-25" value="Obtención de estadísticas KSQLDB" style="rounded=1;whiteSpace=wrap;html=1;fontSize=12;glass=0;strokeWidth=1;shadow=0;" vertex="1" parent="WIyWlLk6GJQsqaUBKTNV-1">
          <mxGeometry x="360" y="640" width="120" height="40" as="geometry" />
        </mxCell>
        <mxCell id="x0Yur-ziyf_fUHAuHj2V-30" value="" style="image;html=1;image=img/lib/clip_art/computers/Database_128x128.png" vertex="1" parent="WIyWlLk6GJQsqaUBKTNV-1">
          <mxGeometry x="660" y="262" width="80" height="80" as="geometry" />
        </mxCell>
        <mxCell id="x0Yur-ziyf_fUHAuHj2V-33" style="edgeStyle=orthogonalEdgeStyle;rounded=0;orthogonalLoop=1;jettySize=auto;html=1;entryX=1;entryY=0.5;entryDx=0;entryDy=0;entryPerimeter=0;" edge="1" parent="WIyWlLk6GJQsqaUBKTNV-1" source="x0Yur-ziyf_fUHAuHj2V-30" target="x0Yur-ziyf_fUHAuHj2V-11">
          <mxGeometry relative="1" as="geometry" />
        </mxCell>
        <mxCell id="x0Yur-ziyf_fUHAuHj2V-34" value="KSQLDB" style="text;html=1;align=center;verticalAlign=middle;resizable=0;points=[];autosize=1;strokeColor=none;fillColor=none;" vertex="1" parent="WIyWlLk6GJQsqaUBKTNV-1">
          <mxGeometry x="665" y="336" width="70" height="30" as="geometry" />
        </mxCell>
        <mxCell id="x0Yur-ziyf_fUHAuHj2V-35" style="edgeStyle=orthogonalEdgeStyle;rounded=0;orthogonalLoop=1;jettySize=auto;html=1;entryX=0.514;entryY=1.033;entryDx=0;entryDy=0;entryPerimeter=0;" edge="1" parent="WIyWlLk6GJQsqaUBKTNV-1" source="x0Yur-ziyf_fUHAuHj2V-25" target="x0Yur-ziyf_fUHAuHj2V-34">
          <mxGeometry relative="1" as="geometry" />
        </mxCell>
        <mxCell id="x0Yur-ziyf_fUHAuHj2V-36" value="" style="image;aspect=fixed;perimeter=ellipsePerimeter;html=1;align=center;shadow=0;dashed=0;fontColor=#4277BB;labelBackgroundColor=default;fontSize=12;spacingTop=3;image=img/lib/ibm/users/browser.svg;" vertex="1" parent="WIyWlLk6GJQsqaUBKTNV-1">
          <mxGeometry x="107" y="630" width="60" height="60" as="geometry" />
        </mxCell>
        <mxCell id="x0Yur-ziyf_fUHAuHj2V-38" value="Navegador Web" style="text;html=1;align=center;verticalAlign=middle;resizable=0;points=[];autosize=1;strokeColor=none;fillColor=none;" vertex="1" parent="WIyWlLk6GJQsqaUBKTNV-1">
          <mxGeometry x="82" y="690" width="110" height="30" as="geometry" />
        </mxCell>
      </root>
    </mxGraphModel>
  </diagram>
</mxfile>
